<svg xmlns="http://www.w3.org/2000/svg" width="1199" height="1167" viewBox="0 0 1199 1167">
  <path d="M 156 123 C 148.25 129.75 133 146.25 127 154 C 121 161.75 112.25 176.75 108 185 C 103.75 193.25 96.5 210.25 93 220 C 89.5 229.75 83.38 249.12 80 263 C 76.62 276.88 68.88 314.38 66 331 C 63.12 347.62 58.88 379.12 57 396 C 55.12 412.88 52.12 448 51 466 C 49.88 484 48.38 518.75 48 540 C 47.62 561.25 47.62 614.38 48 636 C 48.38 657.62 49.88 694.5 51 713 C 52.12 731.5 54.75 764.88 57 784 C 59.25 803.12 66 848.88 69 866 C 72 883.12 77.75 908.5 81 921 C 84.25 933.5 91.12 955.75 95 966 C 98.88 976.25 106.75 993.88 112 1003 C 117.25 1012.12 131 1031.75 137 1039 C 143 1046.25 153.38 1055.75 160 1061 C 166.62 1066.25 181.25 1076.25 190 1081 C 198.75 1085.75 218.75 1094.88 230 1099 C 241.25 1103.12 266.38 1110.62 280 1114 C 293.62 1117.38 321.75 1123.12 339 1126 C 356.25 1128.88 400.38 1135 418 1137 C 435.62 1139 462.25 1141 480 1142 C 497.75 1143 538.12 1144.62 560 1145 C 581.88 1145.38 632 1145.5 655 1145 C 678 1144.5 723 1142.5 744 1141 C 765 1139.5 805.38 1135.25 823 1133 C 840.62 1130.75 870.12 1125.88 885 1123 C 899.88 1120.12 928.75 1113.75 942 1110 C 955.25 1106.25 980.12 1097.62 991 1093 C 1001.88 1088.38 1020.75 1078.25 1029 1073 C 1037.25 1067.75 1050.5 1057.25 1057 1051 C 1063.5 1044.75 1075.38 1031.12 1081 1023 C 1086.62 1014.88 1097.25 996.38 1102 986 C 1106.75 975.62 1115.75 950 1119 940 C 1122.25 930 1125.38 918 1128 906 C 1130.62 894 1137.38 860.12 1140 844 C 1142.62 827.88 1146.88 802.12 1149 777 C 1151.12 751.88 1156.25 680.12 1157 643 C 1157.75 605.88 1156 509.75 1155 480 C 1154 450.25 1151.12 424.38 1149 405 C 1146.88 385.62 1140.75 341.75 1138 325 C 1135.25 308.25 1130.38 284.5 1127 271 C 1123.62 257.5 1115 228.25 1111 217 C 1107 205.75 1100.12 190.12 1095 181 C 1089.88 171.88 1077 152.25 1070 144 C 1063 135.75 1046.25 120.75 1039 115 C 1031.75 109.25 1019.88 102.12 1012 98 C 1004.12 93.88 985.75 85.62 976 82 C 966.25 78.38 947.5 72.38 934 69 C 920.5 65.62 882.88 57.75 868 55 C 853.12 52.25 830.5 48.88 815 47 C 799.5 45.12 763.62 41.38 744 40 C 724.38 38.62 683 36.5 658 36 C 633 35.5 566.75 35.62 544 36 C 521.25 36.38 495.25 37.62 476 39 C 456.75 40.38 408.12 44.88 390 47 C 371.88 49.12 345.88 53.25 331 56 C 316.12 58.75 283.75 65.75 271 69 C 258.25 72.25 239.25 78.12 229 82 C 218.75 85.88 198.12 94.88 189 100 C 179.88 105.12 163.75 116.25 156 123 Z" fill="#FFFFFF"/>
</svg>
